<svg id="Layer_1" data-name="Layer 1" xmlns="http://www.w3.org/2000/svg" xmlns:xlink="http://www.w3.org/1999/xlink" viewBox="0 0 1080 1080"><defs><style>.cls-1{fill:url(#linear-gradient);}.cls-2{fill:#716f6f;}.cls-3{fill:#229bd7;}.cls-4{fill:url(#linear-gradient-2);}.cls-5{fill:url(#linear-gradient-3);}</style><linearGradient id="linear-gradient" x1="523.38" y1="402.17" x2="571.39" y2="1020.03" gradientUnits="userSpaceOnUse"><stop offset="0" stop-color="#706f6f"/><stop offset="0.01" stop-color="#617680"/><stop offset="0.04" stop-color="#45829f"/><stop offset="0.06" stop-color="#2e8cb8"/><stop offset="0.09" stop-color="#1d94cc"/><stop offset="0.13" stop-color="#109ada"/><stop offset="0.17" stop-color="#099de2"/><stop offset="0.24" stop-color="#079ee4"/><stop offset="1" stop-color="#079ee4"/></linearGradient><linearGradient id="linear-gradient-2" x1="649.66" y1="418.89" x2="688.31" y2="418.89" gradientUnits="userSpaceOnUse"><stop offset="0" stop-color="#079ee4"/><stop offset="1" stop-color="#079ee4"/></linearGradient><linearGradient id="linear-gradient-3" x1="571.82" y1="461.67" x2="652.46" y2="461.67" xlink:href="#linear-gradient-2"/></defs><path class="cls-1" d="M688.31,334.44V596.69a6.64,6.64,0,0,1-6.64,6.64H656.3a6.64,6.64,0,0,1-6.64-6.64v-5.87A106.93,106.93,0,0,1,486.32,567h0a100.93,100.93,0,0,1-8.21-85.16c.06-.19.13-.38.2-.57.23-.63.46-1.25.7-1.88l.75-1.87c.1-.24.19-.48.29-.7a.2.2,0,0,1,0-.08c.17-.44.36-.87.55-1.31l.26-.59.06-.14.63-1.38a1.42,1.42,0,0,1,.08-.18c.25-.54.51-1.07.77-1.61s.58-1.17.88-1.76c.11-.23.23-.46.35-.69l.51-1,.3-.55c.2-.38.41-.75.62-1.12l.6-1.06s0,0,0,0c.44-.79.91-1.56,1.37-2.32.11-.18.49-.8.61-1h0c.38-.6.76-1.2,1.15-1.8s.79-1.18,1.19-1.76l.52-.74c.16-.25.34-.5.51-.74l.19-.27.24-.33.51-.7.51-.69,0,0c.41-.54.82-1.08,1.24-1.61.09-.12.18-.25.28-.37.34-.43.68-.86,1-1.28l0-.06.05-.06.06-.07c.29-.35.57-.7.86-1s.48-.57.73-.85c.47-.55.94-1.1,1.43-1.64h0c.48-.54,1-1.07,1.46-1.6l.86-.91.86-.89.88-.89c.29-.29.59-.59.89-.87v0c12.57-13.26,28.33-28.28,28.93-28.86l0,0a67.45,67.45,0,0,0,12.2-38.75c0-38.17-31.76-69.11-70.94-69.11S402.52,337,402.52,375.21s31.76,69.1,70.93,69.1a72,72,0,0,0,8.49-.49,80.92,80.92,0,0,0-20.58,34.29c-.31,1-.61,2.07-.89,3.12a110.55,110.55,0,0,1-58-24.64v82.87a6.73,6.73,0,0,1-6.73,6.72H370.58a6.72,6.72,0,0,1-6.72-6.72V270.62a6.72,6.72,0,0,1,6.72-6.73h25.21a6.73,6.73,0,0,1,6.73,6.73v23.22a110.81,110.81,0,0,1,70.93-25.39q4.35,0,8.61.33c56.5,4.28,101,50.29,101,106.43a104.1,104.1,0,0,1-7,37.61,105.17,105.17,0,0,1-10.6,20.42,109.22,109.22,0,0,1-31.43,31,41.27,41.27,0,0,0-9.46,8.37q-2.14,2.6-4,5.38h0a66,66,0,0,0-11.33,37c0,29.09,19,53.94,45.78,63.87a74.42,74.42,0,0,0,26,4.62c32.43,0,59.83-20.54,68.71-48.73a65.95,65.95,0,0,0,0-39.52c-8.82-28-35.9-48.45-68-48.73H581a74.36,74.36,0,0,0-9.13.55c1.66-1.78,3.25-3.6,4.78-5.49a106.22,106.22,0,0,0,16.26-27.61,106.11,106.11,0,0,1,56.8,26.69V334.44a6.64,6.64,0,0,1,6.64-6.64h25.37A6.64,6.64,0,0,1,688.31,334.44Z"/><path class="cls-2" d="M362.63,724.66a18.52,18.52,0,0,0-3.63-6.29,19.71,19.71,0,0,0-5.75-4.44,24.68,24.68,0,0,0-6.65-2.41,52.73,52.73,0,0,0-5.64-.85c-1.57-.13-3.22-.2-4.95-.2H318.73a5.07,5.07,0,0,0-3.65,1.33,5.28,5.28,0,0,0-1.39,4v65.92a1.63,1.63,0,0,0,.34,1,2.35,2.35,0,0,0,1.19.74,11.68,11.68,0,0,0,2.29.45,30.23,30.23,0,0,0,3.6.17,29.92,29.92,0,0,0,3.62-.17,11.59,11.59,0,0,0,2.27-.45,2.55,2.55,0,0,0,1.22-.74,1.6,1.6,0,0,0,.37-1V758.33h6.11a41.6,41.6,0,0,0,12.61-1.7,24.7,24.7,0,0,0,9-5,21.24,21.24,0,0,0,5.61-8,29,29,0,0,0,1.92-10.93A24.59,24.59,0,0,0,362.63,724.66ZM347.5,739.05a11.51,11.51,0,0,1-2.32,4.13,10.23,10.23,0,0,1-3.93,2.69,16.25,16.25,0,0,1-6,1h-6.68V722h6.34a31.38,31.38,0,0,1,4.5.31,11.21,11.21,0,0,1,4.17,1.5,9.41,9.41,0,0,1,3.34,3.68,13.27,13.27,0,0,1,1.36,6.35A16.64,16.64,0,0,1,347.5,739.05Z"/><path class="cls-3" d="M433.64,730.69a29.27,29.27,0,0,0-7.11-11.13,30.2,30.2,0,0,0-11.5-6.8,52.84,52.84,0,0,0-16.62-2.29H379.6a4.62,4.62,0,0,0-3.14,1.11,4.51,4.51,0,0,0-1.28,3.59v63.89a4.54,4.54,0,0,0,1.28,3.6,4.61,4.61,0,0,0,3.14,1.1h17.5a58.5,58.5,0,0,0,16.8-2.12,30.31,30.31,0,0,0,12-6.66,29.33,29.33,0,0,0,7.56-11.69A50.31,50.31,0,0,0,436.07,746,44.51,44.51,0,0,0,433.64,730.69Zm-14.36,27a20.71,20.71,0,0,1-4.19,8,17.29,17.29,0,0,1-7,4.79A29.45,29.45,0,0,1,397.78,772H390V722.14h7.54A27.94,27.94,0,0,1,408.63,724a18.16,18.16,0,0,1,6.91,5.13,20.6,20.6,0,0,1,3.91,7.76,36.82,36.82,0,0,1,1.22,9.68A40,40,0,0,1,419.28,757.65Z"/><path class="cls-3" d="M496.14,775.18a7.29,7.29,0,0,0-.42-1.78,2.35,2.35,0,0,0-.71-1,1.56,1.56,0,0,0-.94-.31H467.68V751.42h22.14a1.65,1.65,0,0,0,.94-.28,2.1,2.1,0,0,0,.71-.94,6.35,6.35,0,0,0,.42-1.72,26.2,26.2,0,0,0,0-5.41,6.49,6.49,0,0,0-.42-1.76,2.36,2.36,0,0,0-.71-1,1.54,1.54,0,0,0-.94-.31H467.68v-17.9h26.17a1.39,1.39,0,0,0,.9-.31,2.4,2.4,0,0,0,.68-1,7.34,7.34,0,0,0,.43-1.79,22.43,22.43,0,0,0,.14-2.69,23.6,23.6,0,0,0-.14-2.8,7.65,7.65,0,0,0-.43-1.81,2.14,2.14,0,0,0-.68-1,1.55,1.55,0,0,0-.9-.28H457.26a4.63,4.63,0,0,0-3.15,1.11,4.5,4.5,0,0,0-1.27,3.59v63.89a4.54,4.54,0,0,0,1.27,3.6,4.62,4.62,0,0,0,3.15,1.1h36.81a1.56,1.56,0,0,0,.94-.31,2.28,2.28,0,0,0,.71-1,7.29,7.29,0,0,0,.42-1.78,27.08,27.08,0,0,0,0-5.5Z"/><path class="cls-3" d="M574.11,711.66a2.25,2.25,0,0,0-1-.79,6.15,6.15,0,0,0-2-.48,28.88,28.88,0,0,0-3.22-.15,30.43,30.43,0,0,0-3.35.15,7.17,7.17,0,0,0-2.09.48,2.62,2.62,0,0,0-1.13.79,1.63,1.63,0,0,0-.34,1v34.38c0,2.61,0,5.34.08,8.21s.14,5.63.26,8.27h-.06q-1-2.26-2.1-4.53t-2.21-4.61c-.75-1.57-1.54-3.14-2.35-4.71s-1.63-3.16-2.46-4.78l-14.27-26.79a29.9,29.9,0,0,0-2.1-3.71,9.41,9.41,0,0,0-2.18-2.35,7.47,7.47,0,0,0-2.63-1.22,15,15,0,0,0-3.63-.37h-8a5.71,5.71,0,0,0-3.82,1.33,5,5,0,0,0-1.56,4v65.87a1.87,1.87,0,0,0,.29,1,2.11,2.11,0,0,0,1,.76,7.85,7.85,0,0,0,2,.48,24.79,24.79,0,0,0,3.28.17,25.48,25.48,0,0,0,3.34-.17,8.34,8.34,0,0,0,2.07-.48,2.31,2.31,0,0,0,1.08-.76,1.81,1.81,0,0,0,.31-1V743.32q0-4.3-.12-8.35c-.07-2.7-.19-5.41-.34-8.13H527q1.31,3.35,2.94,6.88c1.1,2.36,2.17,4.56,3.23,6.6l18.24,34.27A50.55,50.55,0,0,0,554,779.2a12.64,12.64,0,0,0,2.35,2.84,6.74,6.74,0,0,0,2.66,1.44,12.82,12.82,0,0,0,3.43.4h6.34a7.73,7.73,0,0,0,2.13-.31,4.72,4.72,0,0,0,1.81-1,5,5,0,0,0,1.22-1.69,5.73,5.73,0,0,0,.45-2.33V712.68A2,2,0,0,0,574.11,711.66Z"/><path class="cls-3" d="M643.52,713.7a7.91,7.91,0,0,0-.43-1.9,2.32,2.32,0,0,0-.7-1,1.63,1.63,0,0,0-.94-.31H589.8a1.58,1.58,0,0,0-1,.31,2.48,2.48,0,0,0-.68,1,7.51,7.51,0,0,0-.42,1.9,23.83,23.83,0,0,0-.14,2.89,22.48,22.48,0,0,0,.14,2.8,7.34,7.34,0,0,0,.42,1.87,2.77,2.77,0,0,0,.68,1,1.44,1.44,0,0,0,1,.34h18.35v59.07a1.55,1.55,0,0,0,.37,1,2.51,2.51,0,0,0,1.21.74,11.65,11.65,0,0,0,2.3.45,38.1,38.1,0,0,0,7.19,0,11.52,11.52,0,0,0,2.29-.45,2.5,2.5,0,0,0,1.22-.74,1.55,1.55,0,0,0,.37-1V722.65h18.35a1.47,1.47,0,0,0,.94-.34,2.57,2.57,0,0,0,.7-1,7.74,7.74,0,0,0,.43-1.87,24.59,24.59,0,0,0,.14-2.8A26.06,26.06,0,0,0,643.52,713.7Z"/><path class="cls-3" d="M708.63,781.44a21,21,0,0,0-.85-3.23l-22.66-65a5.5,5.5,0,0,0-.82-1.7,2.93,2.93,0,0,0-1.59-.94,14.19,14.19,0,0,0-3.08-.39c-1.32-.06-3.1-.09-5.33-.09-1.92,0-3.47,0-4.64.09a11.53,11.53,0,0,0-2.75.39,2.79,2.79,0,0,0-1.44.91,5.53,5.53,0,0,0-.8,1.56l-22.6,65a18.27,18.27,0,0,0-.84,3.17,2.18,2.18,0,0,0,.39,1.84,3.08,3.08,0,0,0,2,.82,36,36,0,0,0,4.08.17c1.62,0,2.93,0,3.94-.11a9.22,9.22,0,0,0,2.32-.42,2.49,2.49,0,0,0,1.19-.85,4.75,4.75,0,0,0,.59-1.34l4.65-14.33H688l4.93,14.73a3.77,3.77,0,0,0,.57,1.19,2.22,2.22,0,0,0,1.19.71,11.19,11.19,0,0,0,2.46.34c1.08.06,2.58.08,4.5.08s3.31,0,4.37-.14a3.68,3.68,0,0,0,2.2-.73A2,2,0,0,0,708.63,781.44Zm-44.92-25.83,10.37-31.15h0l10.37,31.15Z"/><path class="cls-3" d="M762.69,774.67a8,8,0,0,0-.42-1.87,2.34,2.34,0,0,0-.71-1,1.71,1.71,0,0,0-1-.31H737.51v-59a1.59,1.59,0,0,0-.36-1,2.68,2.68,0,0,0-1.22-.74,12.38,12.38,0,0,0-2.27-.45,38.41,38.41,0,0,0-7.22,0,12.29,12.29,0,0,0-2.29.45,2.57,2.57,0,0,0-1.22.74,1.55,1.55,0,0,0-.37,1v66.55a4.54,4.54,0,0,0,1.28,3.6,4.59,4.59,0,0,0,3.14,1.1h33.59a1.55,1.55,0,0,0,1-.34,2.47,2.47,0,0,0,.71-1.1,8.9,8.9,0,0,0,.42-1.93,25.1,25.1,0,0,0,.14-2.86A25.35,25.35,0,0,0,762.69,774.67Z"/><rect class="cls-2" x="363.86" y="370.59" width="38.69" height="179.06" rx="13.37"/><path class="cls-2" d="M481.94,443.82a82,82,0,0,0-21.47,37.41s-16.34-1.77-27.35-6.72l15.69-10,20.3-20.36Z"/><path class="cls-2" d="M442.23,477.57a105.31,105.31,0,0,1-37.77-19.41l40.93-19.46s14.27,5.72,28.06,5.61Z"/><path class="cls-4" d="M658.32,326.85h21.33a8.66,8.66,0,0,1,8.66,8.66V510.92a0,0,0,0,1,0,0H668.19a18.53,18.53,0,0,1-18.53-18.53V335.51A8.66,8.66,0,0,1,658.32,326.85Z"/><path class="cls-2" d="M402.55,385.57s5,37.48,42.84,53.13l-35.07,23.83-7.8-5.94Z"/><path class="cls-5" d="M571.82,447a141.42,141.42,0,0,0,21-33.1s31.3,2.44,56.8,26.69l2.8,68.9S648.39,442.37,571.82,447Z"/></svg>